<svg xmlns="http://www.w3.org/2000/svg" viewBox="0 0 512 512" width="512" height="512"><defs><linearGradient id="bg" x1="0" y1="0" x2="1" y2="1"><stop offset="0" stop-color="#22222b"/><stop offset="1" stop-color="#0b0b0f"/></linearGradient><radialGradient id="glow" cx="0.5" cy="0.45" r="0.6"><stop offset="0" stop-color="#f97316" stop-opacity="0.36"/><stop offset="0.5" stop-color="#f97316" stop-opacity="0.08"/><stop offset="1" stop-color="#f97316" stop-opacity="0"/></radialGradient><linearGradient id="top" x1="0" y1="0" x2="1" y2="1"><stop offset="0" stop-color="#ffedd5"/><stop offset="0.45" stop-color="#fdba74"/><stop offset="1" stop-color="#fb923c"/></linearGradient><linearGradient id="bottom" x1="0" y1="0" x2="1" y2="1"><stop offset="0" stop-color="#fb923c"/><stop offset="0.6" stop-color="#f97316"/><stop offset="1" stop-color="#c2410c"/></linearGradient><clipPath id="upper"><polygon points="0,0 512,0 512,203 0,325"/></clipPath><clipPath id="lower"><polygon points="0,349 512,227 512,512 0,512"/></clipPath></defs><rect width="512" height="512" rx="114" fill="url(#bg)"/><rect width="512" height="512" rx="114" fill="url(#glow)"/><g transform="translate(0 0) scale(1)"><g clip-path="url(#upper)"><path fill="url(#top)" d="M230 80 L282 80 L452 432 L344 432 L256 236 L168 432 L60 432 Z"/></g><g clip-path="url(#lower)"><path fill="url(#bottom)" d="M230 80 L282 80 L452 432 L344 432 L256 236 L168 432 L60 432 Z"/></g></g></svg>
